<svg xmlns="http://www.w3.org/2000/svg" width="375" viewBox="0 0 375 375" height="375" version="1.0"><defs><clipPath id="a"><path d="M 3.65625 3.65625 L 371.300781 3.65625 L 371.300781 371.300781 L 3.65625 371.300781 Z M 3.65625 3.65625"/></clipPath><clipPath id="b"><path d="M 211 155 L 310.09375 155 L 310.09375 190 L 211 190 Z M 211 155"/></clipPath><clipPath id="c"><path d="M 64.714844 60 L 212 60 L 212 182 L 64.714844 182 Z M 64.714844 60"/></clipPath><clipPath id="d"><path d="M 144 52.574219 L 227 52.574219 L 227 182 L 144 182 Z M 144 52.574219"/></clipPath><clipPath id="e"><path d="M 70 274 L 171 274 L 171 322.375 L 70 322.375 Z M 70 274"/></clipPath></defs><g clip-path="url(#a)"><path fill="#FEF2F2" d="M 371.300781 187.476562 C 371.300781 190.484375 371.226562 193.492188 371.078125 196.496094 C 370.929688 199.5 370.710938 202.5 370.414062 205.496094 C 370.121094 208.488281 369.75 211.472656 369.308594 214.449219 C 368.867188 217.425781 368.355469 220.386719 367.765625 223.339844 C 367.179688 226.289062 366.519531 229.222656 365.789062 232.140625 C 365.058594 235.058594 364.257812 237.957031 363.382812 240.835938 C 362.511719 243.714844 361.566406 246.574219 360.554688 249.40625 C 359.539062 252.238281 358.457031 255.042969 357.308594 257.824219 C 356.15625 260.601562 354.9375 263.351562 353.652344 266.070312 C 352.363281 268.789062 351.011719 271.476562 349.59375 274.128906 C 348.175781 276.785156 346.691406 279.398438 345.148438 281.980469 C 343.601562 284.5625 341.992188 287.101562 340.320312 289.601562 C 338.648438 292.105469 336.917969 294.5625 335.125 296.980469 C 333.332031 299.394531 331.480469 301.765625 329.574219 304.09375 C 327.664062 306.417969 325.699219 308.695312 323.679688 310.925781 C 321.660156 313.152344 319.585938 315.332031 317.460938 317.460938 C 315.332031 319.585938 313.152344 321.660156 310.925781 323.679688 C 308.695312 325.699219 306.417969 327.664062 304.09375 329.574219 C 301.765625 331.480469 299.394531 333.332031 296.980469 335.125 C 294.5625 336.917969 292.105469 338.648438 289.601562 340.320312 C 287.101562 341.992188 284.5625 343.601562 281.980469 345.148438 C 279.398438 346.691406 276.785156 348.175781 274.128906 349.59375 C 271.476562 351.011719 268.789062 352.363281 266.070312 353.652344 C 263.351562 354.9375 260.601562 356.15625 257.824219 357.308594 C 255.042969 358.457031 252.238281 359.539062 249.40625 360.554688 C 246.574219 361.566406 243.714844 362.511719 240.835938 363.382812 C 237.957031 364.257812 235.058594 365.058594 232.140625 365.789062 C 229.222656 366.519531 226.289062 367.179688 223.339844 367.765625 C 220.386719 368.355469 217.425781 368.867188 214.449219 369.308594 C 211.472656 369.75 208.488281 370.121094 205.496094 370.414062 C 202.5 370.710938 199.5 370.929688 196.496094 371.078125 C 193.492188 371.226562 190.484375 371.300781 187.476562 371.300781 C 184.46875 371.300781 181.460938 371.226562 178.457031 371.078125 C 175.453125 370.929688 172.453125 370.710938 169.460938 370.414062 C 166.464844 370.121094 163.480469 369.75 160.503906 369.308594 C 157.527344 368.867188 154.566406 368.355469 151.613281 367.765625 C 148.664062 367.179688 145.730469 366.519531 142.8125 365.789062 C 139.894531 365.058594 136.996094 364.257812 134.117188 363.382812 C 131.238281 362.511719 128.382812 361.566406 125.550781 360.554688 C 122.714844 359.539062 119.910156 358.457031 117.132812 357.308594 C 114.351562 356.15625 111.601562 354.9375 108.882812 353.652344 C 106.164062 352.363281 103.476562 351.011719 100.824219 349.59375 C 98.171875 348.175781 95.554688 346.691406 92.972656 345.148438 C 90.394531 343.601562 87.851562 341.992188 85.351562 340.320312 C 82.847656 338.648438 80.390625 336.917969 77.972656 335.125 C 75.558594 333.332031 73.1875 331.480469 70.863281 329.574219 C 68.535156 327.664062 66.257812 325.699219 64.03125 323.679688 C 61.800781 321.660156 59.621094 319.585938 57.496094 317.460938 C 55.367188 315.332031 53.292969 313.152344 51.273438 310.925781 C 49.253906 308.695312 47.289062 306.417969 45.378906 304.09375 C 43.472656 301.765625 41.621094 299.394531 39.828125 296.980469 C 38.039062 294.5625 36.304688 292.105469 34.632812 289.601562 C 32.964844 287.101562 31.355469 284.5625 29.808594 281.980469 C 28.261719 279.398438 26.777344 276.785156 25.359375 274.128906 C 23.941406 271.476562 22.589844 268.789062 21.304688 266.070312 C 20.015625 263.351562 18.796875 260.601562 17.648438 257.824219 C 16.496094 255.042969 15.414062 252.238281 14.398438 249.40625 C 13.386719 246.574219 12.441406 243.714844 11.570312 240.835938 C 10.695312 237.957031 9.894531 235.058594 9.164062 232.140625 C 8.433594 229.222656 7.773438 226.289062 7.1875 223.339844 C 6.601562 220.386719 6.085938 217.425781 5.644531 214.449219 C 5.203125 211.472656 4.835938 208.488281 4.539062 205.496094 C 4.246094 202.5 4.023438 199.5 3.875 196.496094 C 3.726562 193.492188 3.65625 190.484375 3.65625 187.476562 C 3.65625 184.46875 3.726562 181.460938 3.875 178.457031 C 4.023438 175.453125 4.246094 172.453125 4.539062 169.460938 C 4.835938 166.464844 5.203125 163.480469 5.644531 160.503906 C 6.085938 157.527344 6.601562 154.566406 7.1875 151.613281 C 7.773438 148.664062 8.433594 145.730469 9.164062 142.8125 C 9.894531 139.894531 10.695312 136.996094 11.570312 134.117188 C 12.441406 131.238281 13.386719 128.382812 14.398438 125.550781 C 15.414062 122.714844 16.496094 119.910156 17.648438 117.132812 C 18.796875 114.351562 20.015625 111.601562 21.304688 108.882812 C 22.589844 106.164062 23.941406 103.476562 25.359375 100.824219 C 26.777344 98.171875 28.261719 95.554688 29.808594 92.972656 C 31.355469 90.394531 32.964844 87.851562 34.632812 85.351562 C 36.304688 82.847656 38.039062 80.390625 39.828125 77.972656 C 41.621094 75.558594 43.472656 73.1875 45.378906 70.863281 C 47.289062 68.535156 49.253906 66.257812 51.273438 64.03125 C 53.292969 61.800781 55.367188 59.621094 57.496094 57.496094 C 59.621094 55.367188 61.800781 53.292969 64.03125 51.273438 C 66.257812 49.253906 68.535156 47.289062 70.863281 45.378906 C 73.1875 43.472656 75.558594 41.621094 77.972656 39.828125 C 80.390625 38.039062 82.847656 36.304688 85.351562 34.632812 C 87.851562 32.964844 90.394531 31.355469 92.972656 29.808594 C 95.554688 28.261719 98.171875 26.777344 100.824219 25.359375 C 103.476562 23.941406 106.164062 22.589844 108.882812 21.304688 C 111.601562 20.015625 114.351562 18.796875 117.132812 17.648438 C 119.910156 16.496094 122.714844 15.414062 125.550781 14.398438 C 128.382812 13.386719 131.238281 12.441406 134.117188 11.570312 C 136.996094 10.695312 139.894531 9.894531 142.8125 9.164062 C 145.730469 8.433594 148.664062 7.773438 151.613281 7.1875 C 154.566406 6.601562 157.527344 6.085938 160.503906 5.644531 C 163.480469 5.203125 166.464844 4.835938 169.460938 4.539062 C 172.453125 4.246094 175.453125 4.023438 178.457031 3.875 C 181.460938 3.726562 184.46875 3.65625 187.476562 3.65625 C 190.484375 3.65625 193.492188 3.726562 196.496094 3.875 C 199.5 4.023438 202.5 4.246094 205.496094 4.539062 C 208.488281 4.835938 211.472656 5.203125 214.449219 5.644531 C 217.425781 6.085938 220.386719 6.601562 223.339844 7.1875 C 226.289062 7.773438 229.222656 8.433594 232.140625 9.164062 C 235.058594 9.894531 237.957031 10.695312 240.835938 11.570312 C 243.714844 12.441406 246.574219 13.386719 249.40625 14.398438 C 252.238281 15.414062 255.042969 16.496094 257.824219 17.648438 C 260.601562 18.796875 263.351562 20.015625 266.070312 21.304688 C 268.789062 22.589844 271.476562 23.941406 274.128906 25.359375 C 276.785156 26.777344 279.398438 28.261719 281.980469 29.808594 C 284.5625 31.355469 287.101562 32.964844 289.601562 34.632812 C 292.105469 36.304688 294.5625 38.039062 296.980469 39.828125 C 299.394531 41.621094 301.765625 43.472656 304.09375 45.378906 C 306.417969 47.289062 308.695312 49.253906 310.925781 51.273438 C 313.152344 53.292969 315.332031 55.367188 317.460938 57.496094 C 319.585938 59.621094 321.660156 61.800781 323.679688 64.03125 C 325.699219 66.257812 327.664062 68.535156 329.574219 70.863281 C 331.480469 73.1875 333.332031 75.558594 335.125 77.972656 C 336.917969 80.390625 338.648438 82.847656 340.320312 85.351562 C 341.992188 87.851562 343.601562 90.394531 345.148438 92.972656 C 346.691406 95.554688 348.175781 98.171875 349.59375 100.824219 C 351.011719 103.476562 352.363281 106.164062 353.652344 108.882812 C 354.9375 111.601562 356.15625 114.351562 357.308594 117.132812 C 358.457031 119.910156 359.539062 122.714844 360.554688 125.550781 C 361.566406 128.382812 362.511719 131.238281 363.382812 134.117188 C 364.257812 136.996094 365.058594 139.894531 365.789062 142.8125 C 366.519531 145.730469 367.179688 148.664062 367.765625 151.613281 C 368.355469 154.566406 368.867188 157.527344 369.308594 160.503906 C 369.75 163.480469 370.121094 166.464844 370.414062 169.460938 C 370.710938 172.453125 370.929688 175.453125 371.078125 178.457031 C 371.226562 181.460938 371.300781 184.46875 371.300781 187.476562 Z M 371.300781 187.476562"/></g><path fill="#F87171" d="M 242.429688 243.746094 L 170.859375 274.398438 L 170.847656 274.398438 L 129.589844 275.859375 L 162.609375 220.4375 L 242.429688 243.746094"/><path fill="#B91C1C" d="M 278.457031 189.617188 L 242.429688 243.746094 L 225.117188 207.78125 L 211.144531 181.707031 L 211.152344 181.699219 L 278.457031 189.617188"/><g clip-path="url(#b)"><path fill="#F87171" d="M 310.015625 180.398438 L 278.457031 189.617188 L 211.152344 181.699219 L 226.785156 174.710938 L 270.355469 155.242188 L 310.015625 180.398438"/></g><path fill="#EF4444" d="M 242.429688 243.746094 L 162.609375 220.4375 L 92.71875 159.707031 L 211.144531 181.707031 L 225.117188 207.78125 L 242.429688 243.746094"/><g clip-path="url(#c)"><path fill="#F87171" d="M 211.144531 181.707031 L 92.71875 159.707031 L 64.792969 60.214844 L 146.734375 110.519531 L 146.734375 110.53125 L 185.871094 134.554688 L 211.132812 181.699219 L 211.144531 181.707031"/></g><g clip-path="url(#d)"><path fill="#FCA5A5" d="M 226.785156 174.710938 L 211.152344 181.699219 L 211.132812 181.699219 L 185.871094 134.554688 L 146.734375 110.53125 L 146.734375 110.519531 L 144.953125 52.578125 L 203.699219 96.542969 L 226.785156 174.710938"/></g><g clip-path="url(#e)"><path fill="#DC2626" d="M 170.847656 274.398438 L 116.929688 322.375 L 70.375 291.824219 L 129.589844 275.859375 L 170.847656 274.398438"/></g></svg>